<svg id="Layer_1" data-name="Layer 1" xmlns="http://www.w3.org/2000/svg" viewBox="0 0 978.7 1059.51"><defs><style>.cls-1,.cls-3,.cls-4,.cls-5,.cls-6,.cls-7,.cls-8{fill:#fff;}.cls-2{fill:none;}.cls-3,.cls-4,.cls-5,.cls-6,.cls-7,.cls-8{isolation:isolate;font-family:Union-Regular, Union;}.cls-3{font-size:121.79px;}.cls-4{font-size:121.53px;}.cls-5{font-size:121.64px;}.cls-6{font-size:121.74px;}.cls-7{font-size:121.09px;}.cls-8{font-size:121.08px;}</style></defs><title>fabo_logo</title><path class="cls-1" d="M748.1,523.15h5.27a4.6,4.6,0,0,0,4.58-4.58v-6.65c0-2.63-2.06-5-4.58-5H748.1a1.18,1.18,0,0,0-1.26,1.14v14.1A1.17,1.17,0,0,0,748.1,523.15Z"/><path class="cls-1" d="M520.54,524.18h3c2.41,0,4.13-2.63,4.13-5v-8.48c0-2.64-1.72-5-4.13-5h-3a1.57,1.57,0,0,0-1.6,1.61v15.36A1.57,1.57,0,0,0,520.54,524.18Z"/><path class="cls-1" d="M523.86,532.66h-3.32a1.57,1.57,0,0,0-1.6,1.6v21a1.57,1.57,0,0,0,1.6,1.61h3.32c2.41,0,4.13-2.64,4.13-5V537.7C528,535.07,526.26,532.66,523.86,532.66Z"/><path class="cls-1" d="M603.5,506.88h-5.27A1.18,1.18,0,0,0,597,508v14.1a1.17,1.17,0,0,0,1.26,1h5.27a4.6,4.6,0,0,0,4.58-4.58v-6.65C608.08,509.29,606,506.88,603.5,506.88Z"/><path class="cls-1" d="M707.76,546h7a.81.81,0,0,0,.8-.92l-4.35-36.9L706.85,545A.9.9,0,0,0,707.76,546Z"/><path class="cls-1" d="M826,546h7a.81.81,0,0,0,.8-.92l-4.35-36.9L825.1,545A.9.9,0,0,0,826,546Z"/><path class="cls-1" d="M346,506.88h-5.27a1.18,1.18,0,0,0-1.26,1.14v14.1a1.17,1.17,0,0,0,1.26,1H346a4.6,4.6,0,0,0,4.58-4.58v-6.65C350.6,509.29,348.54,506.88,346,506.88Z"/><path class="cls-1" d="M189,523.15h5.27a4.6,4.6,0,0,0,4.58-4.58v-6.65c0-2.63-2.06-5-4.58-5H189a1.18,1.18,0,0,0-1.26,1.14v14.1A1.17,1.17,0,0,0,189,523.15Z"/><path class="cls-1" d="M267.87,556.5h2.86a4.72,4.72,0,0,0,4.81-4.58V511a5,5,0,0,0-4.81-4.93h-3.21a1.18,1.18,0,0,0-1.26,1.15v47.67A1.57,1.57,0,0,0,267.87,556.5Z"/><path class="cls-1" d="M723.15,456.63a273.12,273.12,0,0,0-23.85-34.31h.49l-9-10-1.74-1.91A275.19,275.19,0,0,0,593,343.11L590.12,342l-10.42-4.27V338a269.59,269.59,0,0,0-153.51-8.88,262.3,262.3,0,0,0-36.31,11.2A273.55,273.55,0,0,0,253,456.63H113.09V609.31h15.46l28.69,181.45,6.42-1q59.58-9.44,119.42-15.45,3.8,4.35,7.79,8.54a274.32,274.32,0,0,0,103.27,67.68h-.21L404.36,854l3.06,1a271.78,271.78,0,0,0,148.45,3.78,274.72,274.72,0,0,0,26.32-8.19l33.57-14.75a273.68,273.68,0,0,0,78.56-62.73q66.06,6.26,131.86,16.65l6.42,1,28.71-181.45h8.77V456.63Zm89.23,107.78,10.2-66.23c.23-.69.57-1.26,1.26-1.26h11.34c.69,0,1,.57,1.15,1.26.11.34,10,64.4,10.2,66.23.11,1-.46,1.26-1.15,1.26h-7.56c-.69,0-1-.57-1.15-1.26s-.46-2.75-1.26-8.6a.89.89,0,0,0-.92-.8H824.41c-.46,0-.69.34-.8.8l-1.26,8.6a1.35,1.35,0,0,1-1.26,1.26h-7.45C813,565.67,812.27,565.44,812.38,564.41Zm-30.71-65.89a1.57,1.57,0,0,1,1.6-1.61H805a1.57,1.57,0,0,1,1.6,1.61v6.07a1.57,1.57,0,0,1-1.6,1.61H792.67a1.57,1.57,0,0,0-1.6,1.6v10.54a1.57,1.57,0,0,0,1.6,1.6h8.94a1.57,1.57,0,0,1,1.6,1.61v5.73a1.57,1.57,0,0,1-1.6,1.61h-8.94a1.5,1.5,0,0,0-1.6,1.6v24.41a1.66,1.66,0,0,0,1.72,1.6H805a1.45,1.45,0,0,1,1.49,1.49v6a1.66,1.66,0,0,1-1.6,1.72H783.28a1.66,1.66,0,0,1-1.6-1.72Zm-44.23-.34a1.27,1.27,0,0,1,1.26-1.26h17.53a11.55,11.55,0,0,1,11.23,11.57v13.41a11.13,11.13,0,0,1-5.16,9.28,1.72,1.72,0,0,0-.46,1.83c2.86,11.12,5.39,20.63,8.37,31.4.23,1-.57,1.26-1.26,1.26h-7.56c-.69,0-1.15-.57-1.38-1.26,0,0-1-4.12-1.37-5.27-1.26-4.7-3.32-12.61-6.76-25.21a1.14,1.14,0,0,0-1.15-.8H748.1a1.18,1.18,0,0,0-1.26,1.15v30.14a1.18,1.18,0,0,1-1.15,1.26h-7a1.27,1.27,0,0,1-1.26-1.26Zm-19.37,0c.11.34,10,64.4,10.2,66.23.11,1-.46,1.26-1.15,1.26h-7.56c-.69,0-1-.57-1.15-1.26s-.46-2.75-1.26-8.6a.89.89,0,0,0-.92-.8H706.16c-.46,0-.69.34-.8.8l-1.26,8.6a1.35,1.35,0,0,1-1.26,1.26h-7.45c-.69,0-1.37-.23-1.26-1.26l10.2-66.23c.23-.69.57-1.26,1.26-1.26h11.34C717.62,496.91,718,497.48,718.08,498.17Zm-42.19-74.43,1.56-.49,1.35-.35,1.53-.31,1.6-.21h1.91a261.81,261.81,0,0,1,25.48,34.24H652.56c0-.14.08-.29.13-.43.17-.69.38-1.6.63-2.36s.38-1.35.59-2,.42-1.42.66-2.12l.69-2,.69-1.88.76-1.91.73-1.63c.28-.63.59-1.25.87-1.84l.76-1.39c.35-.59.66-1.22,1-1.77l.69-1.08c.38-.59.76-1.22,1.18-1.77l.35-.45a32.26,32.26,0,0,1,5.24-5.52l.66-.56c.49-.38,1-.73,1.53-1.08l.9-.59,1.53-.87,1-.52,1.56-.66ZM645,505.16c-4.13,0-4.81,2.87-4.81,5.5v41.6c0,2.52.69,5.38,4.81,5.38s4.93-2.87,4.93-5.5l-.11-18a1.18,1.18,0,0,0-1.15-1.26h-3.21a1.18,1.18,0,0,1-1.15-1.26v-6.3a1.08,1.08,0,0,1,1.15-1.15h12.49a1,1,0,0,1,1,.92V554c0,9.63-8.14,12.95-14,12.95-6.76,0-14.32-3.9-14.32-15.24V511.35c0-11.57,7.56-15.24,14.32-15.24,5.84,0,14,3,14,11.35v4.24a1.23,1.23,0,0,1-1.15,1.15h-6.53a1.22,1.22,0,0,1-1.37-1.15v-1C649.9,508,649.1,505.16,645,505.16Zm-53.49-79.23q.83-4.62,1.56-9.06l.31-2q.63-3.92,1.11-7.67l.21-1.53c.38-2.81.69-5.52,1-8.19l.21-2c.24-2.57.49-5.1.66-7.54v-.45c.17-2.53.28-5,.38-7.43v-9.62a54.27,54.27,0,0,0-.21-5.87v-1.45q-.21-3.09-.52-6c-.31-2.92,0-.31,0-.45A263.9,263.9,0,0,1,674.43,412l-.13-.08h-.24c-1.08.31-2.12.63-3.13,1h-.21c-.94.38-1.88.76-2.78,1.22l-.49.24a37.56,37.56,0,0,0-5.35,3.26l-.38.28a40.88,40.88,0,0,0-4.65,4.1l-.31.31a47.33,47.33,0,0,0-4,4.79l-.24.35a56.83,56.83,0,0,0-3.47,5.31l-.21.42q-.73,1.28-1.39,2.6V436q-.69,1.42-1.32,2.88l-.21.45q-.56,1.28-1.08,2.6v.39q-.56,1.46-1.08,3v.49l-.83,2.57v.56q-.45,1.46-.83,2.92l-.28-.17q-5.21-3.18-10.42-6.15l-2.26-1.25q-5.38-3-10.9-5.73l-1.88-.9q-5.14-2.5-10.42-4.86l-1.77-.8q-5.66-2.5-11.46-4.79l-1.22-.52Zm-5.63,23.41c.38-1.74.76-3.47,1.11-5.17s.63-2.85.9-4.27l.24-1.22.56.21q5.83,2.36,11.53,4.9l2.29,1q5.69,2.6,11.22,5.38l1.49.76q5.28,2.71,10.42,5.59l.19.11H584.2c.22-.92.44-1.86.66-2.85ZM612,533c2.87,11.12,5.39,20.63,8.37,31.4.23,1-.57,1.26-1.26,1.26h-7.56c-.69,0-1.15-.57-1.38-1.26,0,0-1-4.12-1.37-5.27-1.26-4.7-3.32-12.61-6.76-25.21a1.14,1.14,0,0,0-1.15-.8h-2.64a1.18,1.18,0,0,0-1.26,1.15v30.14a1.18,1.18,0,0,1-1.15,1.26h-7a1.27,1.27,0,0,1-1.26-1.26V498.17a1.27,1.27,0,0,1,1.26-1.26h17.53a11.55,11.55,0,0,1,11.23,11.57v13.41a11.13,11.13,0,0,1-5.16,9.28A1.72,1.72,0,0,0,612,533Zm-97.7-197.8-.06,0q4.51.45,9,1.08l3,.45,6,.94,3.43.68,5.38,1,3.75.83,5.07,1.17,3.85,1,4.9,1.28,3.92,1.15,4.72,1.46,4,1.32,4.62,1.6,4,1.46,3,1.15c.35,1.88.63,3.82.9,5.87v1.08q.35,3.06.52,6.35v8.85q0,3.68-.17,7.64v.59c0,2.67-.31,5.42-.56,8.26v1.39q-.38,4.17-.87,8.54l-.21,1.6c-.38,3-.76,6-1.25,9.2l-.17,1.22c-.49,3.26-1,6.63-1.67,10.07v.17l-.8-.28q-6.32-2.22-12.74-4.17l-2.67-.8c-4.41-1.32-8.82-2.57-13.3-3.72l-1.08-.24q-6.42-1.63-12.92-3l-2.43-.52q-6.67-1.39-13.4-2.5l-1-.21h-.21a65.25,65.25,0,0,0-26.36-60.21,84.93,84.93,0,0,0-25.28-12.4A259.81,259.81,0,0,1,514.28,335.21Zm47.51,223c4.13,0,4.93-3.9,4.93-6.65V498.06a1.19,1.19,0,0,1,1.26-1.15h6.88a1.18,1.18,0,0,1,1.26,1.15v53.86c0,11.57-7.45,15.36-14.32,15.36s-14.32-3.78-14.32-15.36V498.06a1.19,1.19,0,0,1,1.26-1.15h6.88a1.18,1.18,0,0,1,1.26,1.15v53.52C556.86,554.32,557.66,558.22,561.79,558.22ZM576,440.79l-1.11,5.07-1,4.44-1.26,5.15-.28,1.18H497.1c7.85-9.39,13.67-18.47,16.84-27.31.56-1.53,1-3.09,1.53-4.65l.42-1.46q.45-1.67.87-3.47l.21-.87,1.11.17q6.74,1.15,13.44,2.5l2.33.49c4.62,1,9.2,2,13.89,3.19h.35c4.48,1.15,8.89,2.43,13.3,3.75l2.12.63q6.42,2,12.71,4.24l1.15.42-.45,2.26Zm-38.87,96V554c0,5.73-5,11.69-10.77,11.69H511a1.5,1.5,0,0,1-1.6-1.6V498.52a1.57,1.57,0,0,1,1.6-1.61h15c5.73,0,10.77,5,10.77,11.69v9.74c0,4.13-1.37,7.45-4.7,9.17C535.43,529.23,537.15,532.55,537.15,536.79ZM455,498.63c.46-1.15.8-1.72,1.6-1.72h7.1s1.38,0,.8,1.72L451.1,528l14.78,35.87c.57,1.38-.23,1.83-1.15,1.83h-6.42a2.1,2.1,0,0,1-1.95-1.6c-1.15-3.32-8.94-19.37-13.06-31.05v31.17a1.54,1.54,0,0,1-1.6,1.49h-5.62a1.65,1.65,0,0,1-1.72-1.49V498.63a1.76,1.76,0,0,1,1.72-1.72h5.62a1.67,1.67,0,0,1,1.6,1.72V525C447.43,514.1,453.73,501.72,455,498.63Zm-171-42c1.38-.73,2.85-1.48,4.2-2.19,2.32-1.22,3.75-2,5.63-3s4.83-2.33,7.22-3.47c1.84-.87,3.68-1.81,5.52-2.64,2.5-1.15,5-2.19,7.57-3.26,1.81-.76,3.47-1.56,5.38-2.29,2.67-1.08,5.35-2,8.06-3.06,1.7-.63,3.47-1.32,5.1-1.91,3-1,5.94-2,9-3l4.38-1.42q6.7-2,13.47-3.78a396.17,396.17,0,0,1,85.77-12.19,375,375,0,0,1,60.07,2.9v.49c-.21.83-.45,1.7-.69,2.53l-.35,1.28c-.38,1.25-.8,2.53-1.25,3.78-3.48,9.74-11,20.15-21.32,31.23Zm126.12,48.76c-4.24,0-5,2.75-5,5.27v40.79c0,2.63.8,5.39,5,5.39s5.16-2.75,5.16-5.39v-4.24a1.27,1.27,0,0,1,1.26-1.26h7a1.18,1.18,0,0,1,1.15,1.26v6.3c0,9.4-8,12.72-14.55,12.72-7.45,0-14.78-3.78-14.78-15.13V511c0-11.23,7.33-15,14.78-15,6.53,0,14.55,3,14.55,11.46v6.42a1.08,1.08,0,0,1-1.15,1.14h-7a1.2,1.2,0,0,1-1.26-1.26v-3.09C415.23,508.14,414.43,505.39,410.07,505.39Zm-26.24-6.87v65.55a1.57,1.57,0,0,1-1.6,1.6h-6.3a1.57,1.57,0,0,1-1.6-1.6V498.52a1.57,1.57,0,0,1,1.6-1.61h6.3A1.57,1.57,0,0,1,383.83,498.52ZM354.5,533c2.87,11.12,5.39,20.63,8.37,31.4.23,1-.57,1.26-1.26,1.26H354c-.69,0-1.15-.57-1.38-1.26,0,0-1-4.12-1.37-5.27-1.26-4.7-3.32-12.61-6.76-25.21a1.14,1.14,0,0,0-1.15-.8h-2.64a1.18,1.18,0,0,0-1.26,1.15v30.14a1.18,1.18,0,0,1-1.15,1.26h-7a1.27,1.27,0,0,1-1.26-1.26V498.17a1.27,1.27,0,0,1,1.26-1.26h17.53a11.55,11.55,0,0,1,11.23,11.57v13.41a11.13,11.13,0,0,1-5.16,9.28A1.72,1.72,0,0,0,354.5,533Zm-47.55-13.06h8.94a1.57,1.57,0,0,1,1.6,1.61v5.73a1.57,1.57,0,0,1-1.6,1.61h-8.94a1.5,1.5,0,0,0-1.6,1.6v24.41a1.66,1.66,0,0,0,1.72,1.6h12.26a1.45,1.45,0,0,1,1.49,1.49v6a1.66,1.66,0,0,1-1.6,1.72H297.55a1.66,1.66,0,0,1-1.6-1.72V498.52a1.57,1.57,0,0,1,1.6-1.61h21.77a1.57,1.57,0,0,1,1.6,1.61v6.07a1.57,1.57,0,0,1-1.6,1.61H306.95a1.57,1.57,0,0,0-1.6,1.6v10.54A1.57,1.57,0,0,0,306.95,519.94Zm164.32,28.42a1,1,0,0,1,1-1h7a1.13,1.13,0,0,1,1.15,1v2.06c0,4.81,2.64,6.88,5.16,6.88,2.86,0,5.27-2.18,5.27-8.59,0-13.75-19.6-20.28-19.6-37.59,0-8.59,6.3-14.78,14-14.78a13.82,13.82,0,0,1,13.87,13.75,1,1,0,0,1-.92,1.15h-7a1.13,1.13,0,0,1-1-1.15,4.39,4.39,0,0,0-4.58-4.58c-2.64,0-4.81,1.72-4.81,5.61,0,12.61,19.48,20.74,19.48,37.93,0,6.76-4.24,17.42-14.9,17.42-8,0-14-5.16-14.1-15.7ZM423.45,342.08l.07,0,4-1h.63c24.31.38,43.68,5.66,57.43,15.73a53,53,0,0,1,21.6,49,386.79,386.79,0,0,0-62.33-3.09,408,408,0,0,0-88.2,12.66c-4.31,1.11-8.54,2.33-12.81,3.47l-3.92,1.25q-4.48,1.39-8.92,2.92l-4.35,1.53q-4.51,1.63-9,3.47l-3.47,1.42c-4.13,1.67-8.23,3.47-12.29,5.28l-1.56.73q-5.31,2.47-10.42,5.1l-3.92,2q-4.13,2.15-8.23,4.41l-4.11,2.33-2.6,1.46A261.68,261.68,0,0,1,423.45,342.08ZM256.76,498.63a1.57,1.57,0,0,1,1.6-1.6h14.9a11.52,11.52,0,0,1,11.23,11.46v46.18c0,6.07-5.5,11-11.69,11H258.36a1.48,1.48,0,0,1-1.6-1.49Zm-34.15-.11a1.57,1.57,0,0,1,1.6-1.61H246a1.57,1.57,0,0,1,1.6,1.61v6.07a1.57,1.57,0,0,1-1.6,1.61H233.61a1.57,1.57,0,0,0-1.6,1.6v10.54a1.57,1.57,0,0,0,1.6,1.6h8.94a1.57,1.57,0,0,1,1.6,1.61v5.73a1.57,1.57,0,0,1-1.6,1.61h-8.94a1.5,1.5,0,0,0-1.6,1.6v24.41a1.66,1.66,0,0,0,1.72,1.6H246a1.45,1.45,0,0,1,1.49,1.49v6a1.66,1.66,0,0,1-1.6,1.72H224.21a1.66,1.66,0,0,1-1.6-1.72Zm-44.23-.34a1.27,1.27,0,0,1,1.26-1.26h17.53a11.55,11.55,0,0,1,11.23,11.57v13.41a11.13,11.13,0,0,1-5.16,9.28,1.72,1.72,0,0,0-.46,1.83c2.86,11.12,5.39,20.63,8.37,31.4.23,1-.57,1.26-1.26,1.26h-7.56c-.69,0-1.15-.57-1.38-1.26,0,0-1-4.12-1.37-5.27-1.26-4.7-3.32-12.61-6.76-25.21a1.14,1.14,0,0,0-1.15-.8H189a1.18,1.18,0,0,0-1.26,1.15v30.14a1.18,1.18,0,0,1-1.15,1.26h-7a1.27,1.27,0,0,1-1.26-1.26Zm-34.83.34a1.57,1.57,0,0,1,1.6-1.61H167a1.57,1.57,0,0,1,1.6,1.61v6.07a1.57,1.57,0,0,1-1.6,1.61H154.66a1.57,1.57,0,0,0-1.6,1.6v9.51a1.57,1.57,0,0,0,1.6,1.6h8.94a1.57,1.57,0,0,1,1.6,1.61v5.61a1.57,1.57,0,0,1-1.6,1.61h-8.94a1.5,1.5,0,0,0-1.6,1.6l.11,34.61a1.76,1.76,0,0,1-1.72,1.72h-6.3a1.66,1.66,0,0,1-1.6-1.72ZM415.28,831.77l-1.63,1.83-1.74,1.81-1.6,1.6-1.74,1.7L407,840.17l-1.77,1.6-.38.31-4-1.42-5-1.81c-1.88-.73-3.75-1.49-5.63-2.22l-4.72-1.94c-1.88-.8-3.75-1.67-5.59-2.53l-4.55-2.08c-1.88-.9-3.72-1.88-5.59-2.81L365.4,825c-1.88-1-3.72-2-5.59-3.13l-4.16-2.39c-1.91-1.11-3.75-2.29-5.63-3.47l-3.85-2.4c-2-1.32-4-2.71-6-4.1l-3.23-2.19q-4.55-3.26-9-6.7-5.14-4-10-8.12l-.1.13c-1.25-1.08-2.43-2.19-3.47-3.26-1.94-1.74-3.89-3.47-5.76-5.21-1.35-1.28-2.64-2.64-4-3.92s-3.47-3.26-5-5c-.81-.92-1.5-1.67-2.17-2.38q81.22-7.62,162.67-9l-1.06,2-1.74,3.23-1.91,3.47-1.7,3.09-1.91,3.47-1.7,3-1.88,3.23-1.7,2.88-1.86,3L443,794.1,441.11,797l-1.7,2.67-1.76,2.79L436,805l-1.81,2.64-1.7,2.47-1.77,2.5L429,815l-1.74,2.36-1.7,2.26-1.74,2.19-1.7,2.12-1.7,2-1.7,2L417,829.86ZM641,786.1c-.63,1-1.35,2.29-2.08,3.47s-1.32,2-1.94,3-1.49,2.29-2.29,3.47-1.42,1.91-2.12,2.88L630,802.39c-.86,1.18-1.53,1.88-2.26,2.81s-1.81,2.29-2.78,3.47-1.63,1.88-2.47,2.78-2,2.26-3,3.47l-2.64,2.74c-1.08,1.11-2.12,2.26-3.26,3.47l-2.81,2.71-3.23,3.09-3.75,1.91-2.57,1.28-4.2,2-2.73,1.2-4.24,1.84-2.7,1.16-4.31,1.74-2.74,1.08-4.38,1.6-2.74,1-4.57,1.51-2.64.87-4.83,1.46-2.47.73-7.33,2q-3,.38-7.33,1.35l-.09.07-2.92.59-5.87,1.18-3.47.59-5.31.87-3.72.52-5.14.66-3.82.38-5,.45-3.89.28-5,.28H478.18l-5-.24L469.4,855l-5.14-.42-3.68-.35-5.31-.63-3.47-.45-5.69-.9-3.06-.49c-2.4-.42-4.79-.9-7.15-1.39l-1.56-.31q-4.34-.9-8.65-2l-2.57-.66L417.63,846l1.63-1.63,1.25-1.25,2.36-2.5,1.08-1.18,2.81-3.16.66-.76q3.47-4.06,6.94-8.65l1-1.32,2.53-3.47,1.25-1.74,2.29-3.19,1.39-2L445,812l1.42-2.15,2.15-3.26,1.46-2.29,2.12-3.47,1.49-2.43,2.12-3.47,1.49-2.53,2.15-3.65,1.49-2.6,2.19-3.85,1.46-2.6,2.26-4.13L468.2,773l2.4-4.51,1.28-2.43,1.17-2.29q88.39-.92,176.7,5.59l-.29.67c-.49,1.14-1,2.08-1.49,3.09s-1.08,2.29-1.67,3.47-1.08,2-1.63,3.06-1.22,2.29-1.88,3.47S641.62,785.1,641,786.1Zm37.19-12.95-1.63,1.77q-2.67,2.78-5.42,5.52l-1.32,1.25-4.34,4.17-2.08,1.88-3.78,3.47-2.26,1.94-3.88,3.17-2.26,1.84L647,801.63l-2,1.53-.63.45c.63-.9,1.22-1.77,1.81-2.67l1.77-2.6q1.56-2.4,3-4.79l1.35-2.15,4-6.94.42-.83q1.63-3.09,3.13-6.22c.38-.83.73-1.63,1.11-2.47.68-1.55,1.38-3.06,2-4.61q8.26.66,16.51,1.38Zm143.6,2.74q-9-1.39-18-2.7l-5.88-.85q-6.2-.89-12.41-1.74l-6.57-.9q-8-1.08-16.09-2.1c-3.12-.39-6.23-.77-9.35-1.15l-7.63-.92q-5.42-.64-10.85-1.26l-5-.55q-12.92-1.44-25.85-2.72-7.15-.71-14.29-1.36-11.13-1-22.28-1.93-6.43-.52-12.87-1-39.87-3-79.8-4.52l-1.35,0q-9.27-.34-18.54-.61l-4.06-.1c-5.3-.14-10.6-.28-15.9-.38-2.76-.05-5.51-.08-8.27-.12-3.93-.06-7.85-.13-11.78-.17q-10.08-.1-20.16-.1c-5.1,0-10.2,0-15.29.07q-6.46,0-12.92.14-10.93.15-21.85.4l-1.42,0q-10.27.25-20.53.6l-1.9.06q-10.25.36-20.49.81l-1.62.07q-16.28.74-32.55,1.72l-5.22.33q-7.92.5-15.85,1.06l-6.53.47q-7.17.53-14.33,1.1l-7.29.6q-6.54.55-13.08,1.14l-8.33.76-8.9.85q-6.82.67-13.65,1.39l-9.48,1-7.89.88-8.91,1q-7.32.86-14.64,1.77l-7.39.94q-6.17.79-12.34,1.61l-4.84.64q-8.5,1.16-17,2.39l-4.76.69q-8.94,1.31-17.87,2.69L143.27,619.13q9.82-1.53,19.64-3c3.53-.52,7.06-1,10.59-1.51l8.15-1.15q7.06-1,14.13-1.9l3.71-.49q14-1.83,28.07-3.49h0q22-2.59,44-4.75h0q11-1.08,22-2.05h0q20.1-1.78,40.21-3.19h0q18.33-1.3,36.67-2.3l1.29-.07q11.31-.61,22.62-1.11l2.33-.1q11.18-.48,22.36-.85l1.59-.05q30.39-1,60.79-1.17h1.34q11.42-.06,22.84,0h1.75q11.95.07,23.89.25h0q18.23.29,36.46.87l7.21.24q8.21.29,16.42.64l8.33.36,10.07.48q5.41.27,10.81.57,6.5.36,13,.75l9.31.58q11.26.73,22.51,1.57h0q9.94.74,19.87,1.58l1,.08q9.86.83,19.72,1.75l.85.08q10,.93,20.06,2l.34,0q10.2,1,20.39,2.18h0c4.3.48,8.59.95,12.89,1.45h0q21.53,2.52,43,5.44l1.09.15q10.18,1.39,20.35,2.87,10.79,1.57,21.58,3.25Z"/><path class="cls-1" d="M925,364.1c-13.78-5.28-28.09-10.6-42.78-15.7V151.79c0-32.23-22.5-66.5-52.5-79.87a855.25,855.25,0,0,0-686.56,0C113.44,85.36,90.9,119.6,90.9,151.79V350.27c-12.64,4.48-25.11,9-37,13.65C19.19,377.11-3.76,411.84.51,444.65c16.64,129.94,33.2,260.67,49.26,389.16a67,67,0,0,0,66,58.68,66.14,66.14,0,0,0,7.81-.45H124l17.81-2.26a444.67,444.67,0,0,0,698.61.46L854.76,892h.42a66,66,0,0,0,7.81.45,67,67,0,0,0,66-58.79c16-128,32.53-258.91,49.2-388.91C982.46,411.92,959.51,377.16,925,364.1Zm19,76.08q-24.2,189.22-49.2,389.22a32.12,32.12,0,0,1-35.31,28.16c-11.66-1.5-23.19-2.89-34.72-4.24a410,410,0,0,1-95.3,95.29c-184.31,131.5-440.32,88.68-571.82-95.63-12.82,1.5-25.53,3-38.2,4.69a32.12,32.12,0,0,1-35.31-28.16q-25-200.53-49-389.19c-2.22-16.64,11.74-36.5,31.26-43.9Q96,385,125.77,375.13V151.79c0-18.24,13.89-40.26,31.6-48a820.5,820.5,0,0,1,658.47,0c17.64,7.86,31.74,29.77,31.74,48V373.23c21.73,7.09,43.4,14.72,64.93,23.09C932,403.78,946,423.64,944,440.18Z"/><circle class="cls-2" cx="488.11" cy="594.21" r="270.85"/><text class="cls-3" transform="translate(232.27 888.31) rotate(36.07)">O</text><text class="cls-4" transform="translate(271.87 917.55) rotate(28.88)">R</text><text class="cls-5" transform="translate(318.74 943.43) rotate(21.7)">G</text><text class="cls-6" transform="translate(364.9 961.8) rotate(14.45)">A</text><text class="cls-4" transform="translate(411 974.24) rotate(7.37)">N</text><text class="cls-4" transform="translate(465.17 980.76) rotate(1.52)">I</text><text class="cls-4" transform="translate(493.81 982.07) rotate(-3.74)">Z</text><text class="cls-7" transform="translate(542.38 979.06) rotate(-10.41)">A</text><text class="cls-4" transform="translate(588.87 970.69) rotate(-17.27)">T</text><text class="cls-4" transform="translate(634.06 956.34) rotate(-22.66)">I</text><text class="cls-4" transform="translate(660.9 945.79) rotate(-28.06)">O</text><text class="cls-8" transform="translate(704.69 922.78) rotate(-35.6)">N</text><path class="cls-1" d="M174.38,637.41a2.4,2.4,0,0,1,2-2.73h.11q13.72-2.15,27.43-4.13a17,17,0,0,1,19,14.62v.1l2.88,21.25A14.27,14.27,0,0,1,220,681a14.24,14.24,0,0,1,9.48,12.5l4.69,34.72c1.11,8.37-5.1,18.06-13.51,19.27s-17.36,2.53-25.87,3.89a2.22,2.22,0,0,1-2.71-2Zm24.27,40.31,6.63-1a7.19,7.19,0,0,0,5.24-8.26l-2.33-16.39a6.94,6.94,0,0,0-7.42-6.42h0l-6.74,1a2.36,2.36,0,0,0-2.14,2.56h0v.14l4,26.39a2.36,2.36,0,0,0,2.67,2h.11Zm8.51,57,6.42-.94a7.12,7.12,0,0,0,5-8.23l-3.92-27.43a6.94,6.94,0,0,0-7.29-6.46l-6.56,1a2.36,2.36,0,0,0-2.1,2.59h0v.11l5.63,37.4a2.33,2.33,0,0,0,2.59,2h.12Z"/><path class="cls-1" d="M252.72,625.67c.24-1,.66-1.94,1.74-2.08l17.71-2a2,2,0,0,1,2,1.63c.49.45,27.08,109.87,27.47,112.58.31,1.49-.49,1.91-1.49,2L289,739a1.93,1.93,0,0,1-1.88-1.67c-.28-1-1.11-4-3.23-12.4a1.32,1.32,0,0,0-1.49-1l-15,1.7c-.69,0-1,.63-1,1.32q-.17,6.39-.38,12.81a2,2,0,0,1-1.63,2.08l-10.94,1.35c-1,0-2,0-2.08-1.6Q251.57,683.62,252.72,625.67Zm15.42,86.43,10.42-1.18a1.22,1.22,0,0,0,1.06-1.35v-.1Q272.43,674.26,265,639q.69,35.94,1.6,71.88a1.35,1.35,0,0,0,1.49,1.19h0Z"/><path class="cls-1" d="M329.73,629.8a9.72,9.72,0,0,0-8.64,10.69h0a3,3,0,0,0,.13.87c2,21.6,38.4,32.64,40.31,62.5.76,11.46-5.28,30.28-23.65,31.77-13.65,1.11-24.79-6.94-26.7-24.76l-.38-4a1.88,1.88,0,0,1,1.7-2l11-1a1.91,1.91,0,0,1,2,1.7l.31,3.47c.73,8.23,5.73,12.54,11.35,12.08s9.83-5.69,9-16.81c-1.7-23.68-38.51-31.88-41.46-61.36a24.79,24.79,0,0,1,21.88-27.39h.07l1.14-.1a24.31,24.31,0,0,1,27.07,21.19,2.12,2.12,0,0,0,0,.45,1.77,1.77,0,0,1-1.51,2h-.13l-11.53.83a1.94,1.94,0,0,1-2.08-1.7,9,9,0,0,0-9.52-8.44Z"/><path class="cls-1" d="M429.11,726.16c.76,2-.24,2.71-1.6,2.78l-10.17.38a3.13,3.13,0,0,1-3-2.26q-10.8-26.53-22.19-53L395,728.37a2.29,2.29,0,0,1-2.25,2.33h0l-9,.52a2.43,2.43,0,0,1-2.67-2l-6.94-113.27a2.67,2.67,0,0,1,2.53-2.67l9.51-.52a2.53,2.53,0,0,1,2.64,2.4l2.5,47.22c5.42-16.36,13.89-43.47,15.8-48.09.66-1.7,1.15-2.57,2.4-2.64l11.84-.49s2.15,0,1.35,2.5q-9.55,26.22-18.58,52.5Q417.06,696,429.11,726.16Z"/><path class="cls-1" d="M463.18,713.52q12.54-.21,25.11-.28a2.15,2.15,0,0,1,2.22,2.08h0v9.9a2.47,2.47,0,0,1-2.36,2.53q-19.76,0-39.48.59a2.47,2.47,0,0,1-2.43-2.47l-3-113.27a2.4,2.4,0,0,1,2.36-2.43h.05q21-.52,42-.66a2.4,2.4,0,0,1,2.53,2.25V622a2.4,2.4,0,0,1-2.43,2.36h-.07q-13.2,0-26.43.31a2.36,2.36,0,0,0-2.46,2.25V627l.59,30.73a2.36,2.36,0,0,0,2.39,2.33h.11q10.42-.17,20.83-.28a2.36,2.36,0,0,1,2.46,2.25V672a2.36,2.36,0,0,1-2.32,2.4h-.12q-10.42,0-20.56.28a2.26,2.26,0,0,0-2.4,2.4l.66,34.27A2.47,2.47,0,0,0,463.18,713.52Z"/><path class="cls-1" d="M557.77,612.09l-.31,11a1.94,1.94,0,0,1-2,1.81l-15.35-.38a1.94,1.94,0,0,0-2,1.81L536.2,726.2a1.84,1.84,0,0,1-1.74,1.84h-11a1.88,1.88,0,0,1-1.81-1.84l1.18-100a1.91,1.91,0,0,0-1.94-1.88H505.65a1.94,1.94,0,0,1-1.94-1.88V611.22a1.94,1.94,0,0,1,2-1.84q25.07,0,50.14.8A1.94,1.94,0,0,1,557.77,612.09Z"/><path class="cls-1" d="M576.59,613.38a2.4,2.4,0,0,1,2.52-2.26h.08q13.89.56,27.78,1.25a17,17,0,0,1,15.84,18v.11l-1.28,21.42a14.27,14.27,0,0,1-8.51,13A14.24,14.24,0,0,1,620,679l-2.12,35.07c-.52,8.44-8.51,16.74-17,16.29s-17.36-.87-26.08-1.18a2.22,2.22,0,0,1-2.29-2.47Zm16.06,44.27,6.67.31A7.19,7.19,0,0,0,606,651l.87-16.53a6.94,6.94,0,0,0-6-7.74l-6.94-.31a2.36,2.36,0,0,0-2.59,2.1v.15l-1.2,26.63a2.36,2.36,0,0,0,2.42,2.3h0ZM590,715.19l6.49.31a7.12,7.12,0,0,0,6.53-6.94l1.46-27.78a6.94,6.94,0,0,0-5.87-7.74l-6.63-.31a2.36,2.36,0,0,0-2.53,2.18h0V675l-1.88,37.75a2.33,2.33,0,0,0,2.18,2.46Z"/><path class="cls-1" d="M655.72,617c.42-1,1-1.77,2.12-1.7l17.74,1.46c1.08,0,1.53,1,1.63,2s5.31,113,5.14,115.77c0,1.53-.83,1.77-1.88,1.7l-11.15-1c-1,0-1.46-1-1.53-2s-.31-4.1-.76-12.78a1.32,1.32,0,0,0-1.25-1.28l-15-1.22A1.3,1.3,0,0,0,649.5,719l-2.85,12.49a2,2,0,0,1-2,1.7l-11-.8c-1,0-2-.49-1.74-2Q643.4,673.69,655.72,617Zm-1.49,87.78,10.42.87a1.22,1.22,0,0,0,1.32-1.25q-.24-35.94-.73-71.91-6.29,35.42-12.33,70.81a1.35,1.35,0,0,0,1.2,1.49h.12Z"/><path class="cls-1" d="M742.92,728.32a2.33,2.33,0,0,1,2.1,2.54h0v.1l-1.22,9.72a2.12,2.12,0,0,1-2.67,2.22q-19.74-2.5-39.48-4.58a2.88,2.88,0,0,1-2.29-2.78l11.74-113.9s0-1.18,1.74-1L725.55,622a1.21,1.21,0,0,1,1.32,1.32l-11,99.35a2.33,2.33,0,0,0,2,2.59H718Q730.45,726.72,742.92,728.32Z"/><path class="cls-1" d="M804.45,737a2.33,2.33,0,0,1,2,2.59v.12l-1.52,9.65a2.19,2.19,0,0,1-2.74,2.12q-19.65-3.09-39.34-5.76a2.88,2.88,0,0,1-2.19-2.85L776,629.42s0-1.18,1.77-.94l12.67,1.77a1.26,1.26,0,0,1,1.25,1.39l-14.13,99a2.33,2.33,0,0,0,1.94,2.66h.11Q792,735,804.45,737Z"/><path class="cls-1" d="M344.77,108.07l.45,68.55q-19.62,2.53-39.1,5.76V160.61Q285,164.53,264,169.36l.31,50.94q33-5.63,66.18-9.58l.16,44.6q-33.23,3-66.25,7.19,0,29.27.21,58.54l19-1,.31,43.72-81.6.38v-39.3l19.06-1.28q-.28-71.64-.56-143.24-9.31,2.6-18.58,5.38V146.26A829.9,829.9,0,0,1,344.77,108.07Z"/><path class="cls-1" d="M424.7,98c11.08,71.67,22,144.21,32.88,217.09h19.07v48.3H407.2L407,315.82l10.73-.21-2-23.51q-16.15.42-32.26,1l-2.43,23.16,11-.28.24,47.33-70,.17L322,318.32l18.86-.69q15.62-104.85,31.24-213.86Q398.28,100.09,424.7,98Zm-35,147.71q9.79-.56,19.58-1-5.1-37.4-10.24-74.48Z"/><path class="cls-1" d="M633.08,142.17,632.73,211q-9.17,9.62-18.3,19.58,9,11.42,17.88,22.74l-.52,77.37q-14.06,16-28.14,32.64h-122v-47.4h19.1V145.78H481.51v-50a830.91,830.91,0,0,1,122.85,8ZM544.78,222q17.36-10.21,34.72-19.72l9-10.42V162.17l-9.31-12.43q-17-1.53-34.17-2.5Zm0,94.48q16.95.21,33.89.59l9.72-10.9.21-39.38-9.2-11.56q-17.36,9.9-34.52,20.35Z"/><path class="cls-1" d="M746.11,136.79q14.1,19.69,28.16,38.61V335.13q-14.41,13.89-29,28.82l-73.16-.31q-14.31-16.49-28.58-33.79l1.36-185.53q14.55-14.45,29-27.78Q710.27,125.12,746.11,136.79Zm-23.4,184.35,8-8.44.66-130.25L724,172.38q-13.61-3.47-27.33-6.22-4.17,3.75-8.3,7.6l-.94,136.67,7.6,9.2Z"/></svg>